<?xml version="1.0" encoding="UTF-8"?>
<svg xmlns="http://www.w3.org/2000/svg" xmlns:xlink="http://www.w3.org/1999/xlink" width="40px" height="40px" viewBox="0 0 40 40" version="1.1">
<g id="surface1">
<path style=" stroke:none;fill-rule:nonzero;fill:rgb(0%,0%,0%);fill-opacity:1;" d="M 18.734375 5.171875 C 18.707031 5.199219 18.613281 5.238281 18.507812 5.253906 C 18.414062 5.265625 18.078125 5.359375 17.773438 5.453125 C 17.464844 5.535156 17.171875 5.601562 17.105469 5.585938 C 17 5.558594 16.867188 5.601562 16.308594 5.828125 C 16.171875 5.878906 16.011719 5.921875 15.933594 5.933594 C 15.679688 5.960938 15.132812 6.160156 14.574219 6.414062 C 14.253906 6.546875 13.933594 6.667969 13.839844 6.679688 C 13.746094 6.679688 13.375 6.851562 13 7.054688 C 12.464844 7.359375 12.347656 7.492188 12.375 7.734375 C 12.398438 7.921875 12.375 8 12.28125 7.933594 C 12.199219 7.894531 12.160156 7.785156 12.199219 7.71875 C 12.253906 7.652344 12.214844 7.601562 12.132812 7.601562 C 11.921875 7.601562 11.441406 7.894531 10.933594 8.347656 C 10.679688 8.585938 10.28125 8.8125 10.039062 8.867188 C 9.574219 8.960938 8.640625 9.988281 8.027344 11.09375 C 7.839844 11.398438 7.585938 11.851562 7.464844 12.078125 C 7.011719 12.878906 6.945312 13 6.679688 13.601562 C 6.519531 13.933594 6.28125 14.398438 6.132812 14.625 C 5.613281 15.492188 5.027344 18.535156 5.054688 20.332031 C 5.078125 22.414062 5.375 23.8125 6.132812 25.601562 C 6.332031 26.078125 6.535156 26.558594 6.585938 26.667969 C 6.625 26.773438 6.8125 27.105469 7 27.398438 C 7.171875 27.691406 7.386719 28.054688 7.453125 28.199219 C 7.519531 28.347656 7.761719 28.679688 7.988281 28.933594 C 8.332031 29.308594 8.441406 29.359375 8.535156 29.199219 C 8.601562 29.09375 8.691406 29.054688 8.761719 29.105469 C 8.8125 29.171875 8.773438 29.265625 8.667969 29.347656 C 8.507812 29.453125 8.535156 29.535156 8.851562 29.785156 C 9.066406 29.960938 9.332031 30.078125 9.453125 30.039062 C 9.625 29.988281 9.625 30.011719 9.441406 30.171875 C 9.226562 30.347656 9.238281 30.386719 9.613281 30.746094 C 9.945312 31.066406 10.039062 31.09375 10.132812 30.933594 C 10.199219 30.828125 10.292969 30.785156 10.359375 30.839844 C 10.414062 30.90625 10.375 31 10.28125 31.066406 C 10.171875 31.121094 10.121094 31.253906 10.160156 31.359375 C 10.265625 31.625 11.535156 32.558594 12.398438 33.011719 C 12.800781 33.214844 13.28125 33.492188 13.464844 33.613281 C 13.652344 33.734375 14.132812 33.933594 14.535156 34.054688 C 14.933594 34.171875 15.359375 34.332031 15.480469 34.398438 C 15.601562 34.464844 15.960938 34.558594 16.28125 34.601562 C 16.601562 34.652344 16.90625 34.71875 16.960938 34.746094 C 17.359375 35 21.292969 35.054688 22.199219 34.8125 C 22.492188 34.746094 23 34.613281 23.320312 34.535156 C 23.640625 34.453125 23.972656 34.347656 24.054688 34.292969 C 24.132812 34.253906 24.265625 34.199219 24.332031 34.199219 C 24.746094 34.171875 26 33.8125 26 33.707031 C 26 33.652344 26.09375 33.601562 26.199219 33.601562 C 26.386719 33.601562 27.894531 32.933594 28.253906 32.679688 C 28.414062 32.574219 28.425781 32.519531 28.265625 32.347656 C 28.171875 32.226562 28.132812 32.09375 28.1875 32.039062 C 28.226562 31.988281 28.347656 32.066406 28.453125 32.199219 C 28.625 32.441406 28.640625 32.441406 29.011719 32.148438 C 29.851562 31.480469 31.761719 29.546875 31.625 29.492188 C 31.535156 29.464844 31.464844 29.347656 31.464844 29.238281 C 31.464844 29.066406 31.507812 29.066406 31.667969 29.199219 C 31.921875 29.414062 32.253906 29.039062 32.746094 28 C 32.933594 27.601562 33.1875 27.078125 33.308594 26.851562 C 33.507812 26.425781 33.441406 25.921875 33.199219 26.066406 C 32.988281 26.199219 33.039062 25.90625 33.464844 24.398438 C 34.574219 20.519531 34.171875 16.734375 32.28125 13.121094 C 31.800781 12.199219 31.707031 11.761719 32.132812 12.425781 C 32.945312 13.71875 33.71875 15.828125 34.078125 17.707031 C 34.414062 19.507812 34.28125 22.148438 33.746094 24.1875 C 33.519531 25.066406 33.375 25.8125 33.414062 25.851562 C 33.464844 25.894531 33.535156 25.851562 33.558594 25.761719 C 33.601562 25.679688 33.679688 25.640625 33.746094 25.679688 C 33.828125 25.71875 33.839844 25.613281 33.785156 25.375 C 33.707031 25.039062 33.71875 25.027344 33.894531 25.171875 C 34.078125 25.320312 34.132812 25.265625 34.320312 24.707031 C 34.585938 23.878906 34.613281 22.933594 34.375 22.933594 C 34.308594 22.933594 34.292969 22.867188 34.332031 22.800781 C 34.386719 22.71875 34.480469 22.691406 34.546875 22.734375 C 34.734375 22.851562 34.933594 22.199219 34.933594 21.425781 C 34.945312 21.039062 34.945312 20.492188 34.960938 20.199219 C 34.988281 18.878906 34.933594 18.507812 34.734375 18.574219 C 34.625 18.625 34.507812 18.601562 34.464844 18.535156 C 34.414062 18.453125 34.507812 18.398438 34.667969 18.398438 C 34.921875 18.398438 34.945312 18.347656 34.878906 17.894531 C 34.785156 17.214844 34.1875 15.171875 33.800781 14.199219 C 33.226562 12.773438 32.945312 12.292969 32.464844 11.921875 C 32.199219 11.71875 31.828125 11.28125 31.625 10.945312 C 31.121094 10.066406 29.867188 8.691406 29.425781 8.546875 C 29.226562 8.464844 29.027344 8.320312 28.988281 8.199219 C 28.945312 8.09375 28.851562 8 28.773438 8 C 28.707031 8 28.558594 7.921875 28.464844 7.828125 C 28.039062 7.453125 27.894531 7.359375 27.585938 7.265625 C 27.414062 7.214844 27.09375 7.027344 26.867188 6.867188 C 26.386719 6.519531 25.347656 6.105469 25.1875 6.214844 C 25.121094 6.253906 24.921875 6.1875 24.746094 6.066406 C 24.558594 5.945312 24.078125 5.8125 23.652344 5.785156 C 23.039062 5.734375 22.839844 5.652344 22.625 5.386719 C 22.375 5.054688 22.347656 5.054688 20.574219 5.09375 C 19.585938 5.121094 18.761719 5.148438 18.734375 5.171875 Z M 19.039062 5.667969 C 19.039062 5.851562 18.972656 6.039062 18.894531 6.09375 C 18.8125 6.148438 18.851562 6.226562 19.011719 6.28125 C 19.214844 6.359375 19.1875 6.386719 18.851562 6.386719 C 18.105469 6.414062 16.078125 6.800781 15.332031 7.078125 C 13.746094 7.667969 12.078125 8.613281 11.054688 9.507812 C 10.464844 10 9.945312 10.375 9.867188 10.332031 C 9.746094 10.253906 8.734375 11.679688 8.078125 12.839844 C 7.214844 14.425781 6.332031 17.707031 6.214844 19.894531 C 6.121094 21.464844 6.625 23.800781 7.480469 25.679688 C 7.691406 26.171875 7.839844 26.601562 7.800781 26.640625 C 7.707031 26.746094 6.972656 25.027344 6.601562 23.828125 C 5.785156 21.105469 5.851562 18.464844 6.828125 15.464844 C 7.027344 14.867188 7.066406 14.601562 6.945312 14.558594 C 6.867188 14.535156 6.800781 14.453125 6.800781 14.375 C 6.800781 14.308594 6.867188 14.265625 6.960938 14.292969 C 7.054688 14.332031 7.386719 13.800781 7.761719 13.078125 C 8.453125 11.707031 10.160156 9.214844 10.238281 9.453125 C 10.265625 9.535156 10.1875 9.691406 10.078125 9.8125 C 9.960938 9.921875 9.867188 10.078125 9.867188 10.160156 C 9.867188 10.226562 10.265625 9.921875 10.773438 9.464844 C 12.332031 8.054688 14.691406 6.878906 16.894531 6.453125 C 18.414062 6.160156 18.425781 6.160156 18.332031 6 C 18.292969 5.933594 18.320312 5.867188 18.398438 5.867188 C 18.492188 5.867188 18.519531 5.960938 18.480469 6.078125 C 18.425781 6.214844 18.464844 6.265625 18.558594 6.226562 C 18.652344 6.199219 18.746094 6.027344 18.761719 5.851562 C 18.785156 5.359375 18.785156 5.332031 18.921875 5.332031 C 18.988281 5.332031 19.039062 5.480469 19.039062 5.667969 Z M 21.011719 6.308594 C 21.066406 6.359375 20.800781 6.398438 20.414062 6.398438 C 20.027344 6.398438 19.746094 6.347656 19.785156 6.292969 C 19.867188 6.160156 20.878906 6.171875 21.011719 6.308594 Z M 24.308594 6.652344 C 24.425781 6.667969 24.535156 6.734375 24.535156 6.8125 C 24.535156 6.894531 24.386719 6.921875 24.171875 6.878906 C 23.960938 6.839844 23.375 6.746094 22.839844 6.652344 C 22.308594 6.558594 21.90625 6.453125 21.933594 6.398438 C 21.960938 6.347656 22.453125 6.386719 23.027344 6.480469 C 23.601562 6.574219 24.171875 6.652344 24.308594 6.652344 Z M 21.332031 6.773438 C 21.332031 6.839844 20.574219 6.894531 19.640625 6.90625 C 18.398438 6.921875 17.601562 7 16.734375 7.199219 C 15.386719 7.519531 13.121094 8.546875 12.09375 9.292969 C 11.28125 9.894531 9.933594 11.078125 9.933594 11.214844 C 9.933594 11.265625 9.679688 11.585938 9.375 11.945312 C 9.054688 12.292969 8.800781 12.640625 8.800781 12.707031 C 8.800781 12.761719 8.652344 13.011719 8.480469 13.238281 C 8.066406 13.785156 7.375 15.507812 7.054688 16.773438 C 6.238281 20.011719 6.480469 22.507812 7.921875 25.734375 C 8.320312 26.640625 8.71875 27.441406 8.785156 27.507812 C 9.027344 27.746094 9.121094 27.480469 8.894531 27.226562 C 8.773438 27.09375 8.519531 26.640625 8.332031 26.199219 C 8.132812 25.761719 7.921875 25.28125 7.851562 25.132812 C 7.800781 24.988281 7.613281 24.546875 7.464844 24.148438 C 6.28125 21.066406 6.691406 16.839844 8.464844 13.652344 C 8.988281 12.734375 10.332031 11.027344 10.878906 10.625 C 11.386719 10.238281 11.253906 10.585938 10.679688 11.160156 C 9.238281 12.574219 8.132812 14.441406 7.546875 16.453125 C 7.148438 17.828125 6.867188 20.160156 6.988281 21.121094 C 7.121094 22.171875 7.480469 23.71875 7.613281 23.8125 C 7.679688 23.851562 7.734375 23.972656 7.734375 24.078125 C 7.734375 24.1875 7.867188 24.558594 8.011719 24.90625 C 8.171875 25.253906 8.441406 25.839844 8.601562 26.199219 C 8.773438 26.574219 9.066406 27.066406 9.253906 27.292969 C 9.441406 27.519531 9.601562 27.773438 9.601562 27.867188 C 9.601562 27.945312 9.667969 27.972656 9.734375 27.933594 C 9.8125 27.894531 9.867188 27.933594 9.867188 28.027344 C 9.867188 28.121094 9.988281 28.28125 10.148438 28.375 C 10.308594 28.480469 10.386719 28.625 10.347656 28.746094 C 10.265625 28.960938 10.292969 28.972656 10.585938 28.851562 C 10.734375 28.800781 10.601562 28.535156 9.960938 27.691406 C 9.078125 26.546875 8.039062 24.398438 7.625 22.878906 C 7.308594 21.707031 7.320312 18.535156 7.640625 17.265625 C 8.171875 15.238281 8.90625 13.734375 10.039062 12.347656 C 11.425781 10.667969 11.972656 10.199219 13.734375 9.238281 C 14.640625 8.734375 16.535156 7.945312 16.535156 8.066406 C 16.535156 8.09375 16.828125 8.027344 17.199219 7.933594 C 18.054688 7.707031 21.558594 7.667969 22.453125 7.878906 C 25.558594 8.585938 26.773438 9.226562 28.8125 11.199219 C 30.828125 13.171875 31.960938 15.464844 32.480469 18.667969 C 32.71875 20.09375 32.652344 21.171875 32.265625 22.867188 C 31.667969 25.425781 31.078125 26.507812 28.945312 28.921875 C 27.71875 30.308594 26.921875 31.105469 26.839844 31.011719 C 26.800781 30.972656 26.546875 31.054688 26.28125 31.1875 C 26.011719 31.320312 25.558594 31.507812 25.265625 31.585938 C 24.972656 31.679688 24.640625 31.785156 24.535156 31.828125 C 24.253906 31.933594 23.375 32.1875 22.265625 32.453125 C 21.773438 32.585938 20.585938 32.691406 19.828125 32.691406 C 18.652344 32.691406 16.292969 32.320312 15.480469 32.011719 C 14.332031 31.585938 12.171875 30.28125 11.667969 29.71875 C 11.414062 29.441406 11.199219 29.253906 11.199219 29.332031 C 11.199219 29.398438 11.105469 29.464844 11 29.464844 C 10.828125 29.464844 10.8125 29.414062 10.933594 29.199219 C 11.09375 28.894531 10.921875 28.839844 10.640625 29.121094 C 10.492188 29.265625 10.414062 29.265625 10.226562 29.132812 C 10.09375 29.039062 10.027344 28.878906 10.066406 28.773438 C 10.121094 28.652344 9.988281 28.441406 9.746094 28.226562 C 9.519531 28.039062 9.332031 27.828125 9.332031 27.746094 C 9.332031 27.546875 9.105469 27.558594 9.027344 27.761719 C 8.972656 27.894531 8.921875 27.894531 8.828125 27.746094 C 8.761719 27.652344 8.625 27.601562 8.546875 27.652344 C 8.464844 27.707031 8.292969 27.558594 8.132812 27.308594 C 7.851562 26.839844 7.773438 26.425781 8.039062 26.839844 C 8.507812 27.546875 8.480469 27.414062 7.945312 26.265625 C 6.839844 23.90625 6.414062 22.1875 6.398438 20.132812 C 6.398438 18 7.308594 14.652344 8.292969 13.121094 C 8.519531 12.761719 8.921875 12.148438 9.171875 11.761719 C 9.425781 11.386719 9.71875 11 9.851562 10.933594 C 10.039062 10.828125 10.039062 10.785156 9.867188 10.652344 C 9.691406 10.535156 9.707031 10.519531 9.90625 10.585938 C 10.09375 10.640625 10.386719 10.453125 10.972656 9.921875 C 12.464844 8.558594 15.148438 7.253906 17.148438 6.894531 C 18.308594 6.679688 21.332031 6.601562 21.332031 6.773438 Z M 24.453125 7.253906 C 25.320312 7.480469 26.414062 8.011719 27.464844 8.734375 C 28.441406 9.386719 30.28125 11.199219 31.011719 12.226562 C 32.171875 13.839844 33.054688 16.160156 33.425781 18.625 C 33.625 20.027344 33.640625 20.226562 33.425781 21.691406 C 33.027344 24.546875 32.214844 26.640625 31 27.960938 C 30.601562 28.386719 30.28125 28.667969 30.28125 28.601562 C 30.28125 28.519531 30.546875 28.160156 30.878906 27.800781 C 32.625 25.867188 33.691406 21.585938 33.199219 18.386719 C 32.839844 16.039062 31.71875 13.347656 30.464844 11.839844 C 29.574219 10.746094 27.746094 9.121094 26.734375 8.507812 C 25.625 7.828125 24.121094 7.292969 22.894531 7.148438 C 21.972656 7.027344 21.464844 6.90625 21.464844 6.800781 C 21.464844 6.679688 23.375 6.972656 24.453125 7.253906 Z M 26.027344 7.308594 C 27.265625 7.867188 28.613281 8.878906 30.066406 10.347656 C 30.601562 10.878906 30.613281 10.878906 30.828125 10.613281 C 30.945312 10.453125 31.09375 10.386719 31.148438 10.441406 C 31.214844 10.507812 31.121094 10.652344 30.960938 10.785156 L 30.652344 11.011719 L 31.171875 11.734375 C 33.453125 14.921875 34.386719 19.238281 33.601562 22.945312 C 33.226562 24.71875 32.640625 26.507812 32.214844 27.132812 C 31.867188 27.652344 30.375 29.238281 29.160156 30.359375 C 28.414062 31.054688 27.078125 32 26.839844 32 C 26.492188 32 26.691406 31.800781 27.332031 31.480469 C 28.148438 31.078125 31.691406 27.652344 32.1875 26.800781 C 32.625 26 33.414062 23.253906 33.613281 21.785156 C 33.945312 19.265625 33.425781 16.414062 32.132812 13.667969 C 31.601562 12.558594 30.308594 10.800781 29.492188 10.078125 C 29.238281 9.851562 28.839844 9.492188 28.613281 9.292969 C 28.054688 8.773438 26.160156 7.546875 25.679688 7.398438 C 25.464844 7.320312 25.265625 7.1875 25.226562 7.078125 C 25.199219 6.988281 25.214844 6.921875 25.28125 6.960938 C 25.347656 6.988281 25.679688 7.148438 26.027344 7.308594 Z M 13.867188 8.773438 C 13.867188 8.894531 13.171875 9.214844 13.09375 9.148438 C 13 9.039062 13.214844 8.785156 13.332031 8.867188 C 13.386719 8.90625 13.480469 8.839844 13.519531 8.71875 C 13.585938 8.535156 13.867188 8.574219 13.867188 8.773438 Z M 27.601562 9.425781 C 27.878906 9.667969 27.960938 10 27.734375 10 C 27.667969 10 27.601562 9.90625 27.601562 9.800781 C 27.601562 9.691406 27.507812 9.601562 27.398438 9.601562 C 27.292969 9.601562 27.199219 9.507812 27.199219 9.398438 C 27.199219 9.148438 27.265625 9.148438 27.601562 9.425781 Z M 30.171875 11.878906 C 31.535156 13.414062 32.734375 16.253906 33.078125 18.761719 C 33.375 20.878906 32.851562 23.800781 31.800781 25.933594 C 31.386719 26.785156 30.078125 28.585938 29.839844 28.640625 C 29.535156 28.71875 29.746094 28.398438 30.773438 27.214844 C 31.773438 26.066406 32.761719 23.054688 32.894531 20.71875 C 33.066406 17.71875 31.773438 13.894531 29.921875 11.933594 C 29.519531 11.519531 29.199219 11.148438 29.199219 11.121094 C 29.199219 10.90625 29.546875 11.1875 30.171875 11.878906 Z M 6.800781 15.011719 C 6.054688 16.960938 5.679688 20.253906 5.988281 22.078125 C 6.1875 23.253906 6.707031 24.90625 7.214844 25.933594 C 7.734375 27.027344 8.425781 28.09375 8.492188 27.921875 C 8.546875 27.746094 9.199219 27.988281 9.199219 28.171875 C 9.199219 28.347656 9.574219 28.679688 9.640625 28.558594 C 9.667969 28.507812 9.679688 28.535156 9.652344 28.613281 C 9.640625 28.707031 9.800781 28.972656 10.027344 29.214844 C 10.238281 29.464844 10.507812 29.785156 10.613281 29.933594 C 10.8125 30.199219 10.8125 30.199219 11.039062 29.894531 C 11.171875 29.71875 11.320312 29.640625 11.375 29.691406 C 11.425781 29.746094 11.347656 29.894531 11.1875 30 C 10.90625 30.226562 10.90625 30.226562 11.746094 30.851562 C 12.214844 31.214844 12.878906 31.640625 13.226562 31.8125 C 13.585938 31.988281 13.867188 32.199219 13.867188 32.265625 C 13.867188 32.425781 13.640625 32.441406 13.546875 32.292969 C 13.507812 32.238281 13.148438 32.011719 12.746094 31.8125 C 12.332031 31.601562 12 31.386719 12 31.320312 C 12 31.253906 11.933594 31.199219 11.851562 31.199219 C 11.773438 31.199219 11.640625 31.121094 11.546875 31.039062 C 11.453125 30.945312 11.171875 30.679688 10.921875 30.464844 C 10.574219 30.148438 8.933594 28.332031 8.707031 28.011719 C 8.679688 27.988281 8.625 28 8.574219 28.054688 C 8.507812 28.105469 8.625 28.292969 8.839844 28.480469 C 9.039062 28.652344 9.214844 28.839844 9.226562 28.894531 C 9.320312 29.214844 11.359375 31.253906 12.039062 31.679688 C 12.574219 32.027344 13.679688 32.601562 14.691406 33.054688 C 15.414062 33.375 16.828125 33.71875 17.800781 33.828125 C 18.453125 33.894531 18.972656 34.132812 18.464844 34.132812 C 18.105469 34.132812 16.121094 33.800781 16.039062 33.734375 C 16.011719 33.707031 15.945312 33.679688 15.867188 33.667969 C 15.800781 33.652344 15.71875 33.625 15.707031 33.613281 C 15.679688 33.601562 15.28125 33.453125 14.800781 33.292969 C 13.308594 32.785156 11.734375 31.828125 10.640625 30.773438 C 8.746094 28.945312 7.652344 27.441406 6.867188 25.625 C 6.625 25.078125 6.386719 24.707031 6.347656 24.785156 C 6.226562 24.972656 6 24.972656 6 24.800781 C 6 24.71875 6.09375 24.667969 6.199219 24.667969 C 6.453125 24.667969 6.453125 24.574219 6.199219 23.867188 C 6.027344 23.375 5.933594 22.921875 5.652344 21.09375 C 5.613281 20.8125 5.507812 20.667969 5.359375 20.652344 C 5.160156 20.640625 5.160156 20.625 5.347656 20.574219 C 5.492188 20.546875 5.601562 20.308594 5.652344 19.90625 C 5.761719 19.078125 5.761719 18.519531 5.640625 18.574219 C 5.574219 18.585938 5.519531 18.535156 5.507812 18.464844 C 5.480469 18.386719 5.546875 18.332031 5.640625 18.332031 C 5.71875 18.332031 5.828125 18.1875 5.839844 18 C 5.90625 17.546875 6.359375 15.585938 6.464844 15.292969 C 6.535156 15.132812 6.492188 15.066406 6.347656 15.066406 C 6.226562 15.066406 6.132812 15 6.132812 14.921875 C 6.132812 14.839844 6.253906 14.8125 6.398438 14.867188 C 6.546875 14.921875 6.667969 14.894531 6.667969 14.8125 C 6.667969 14.734375 6.71875 14.667969 6.800781 14.667969 C 6.878906 14.667969 6.878906 14.785156 6.800781 15.011719 Z M 32.132812 27.851562 C 32.132812 27.988281 31.132812 29.160156 30.667969 29.546875 C 30.480469 29.707031 30.054688 30.09375 29.71875 30.414062 C 28.535156 31.546875 28.214844 31.785156 27.105469 32.347656 C 26.066406 32.878906 24.359375 33.519531 23.601562 33.652344 C 23.414062 33.679688 22.851562 33.8125 22.332031 33.933594 C 21.121094 34.226562 20.667969 34.28125 20.667969 34.132812 C 20.667969 34.011719 20.972656 33.933594 21.933594 33.800781 C 23.519531 33.574219 25.425781 32.945312 27.066406 32.132812 C 27.8125 31.761719 28.519531 31.214844 29.800781 30.039062 C 30.761719 29.160156 31.613281 28.28125 31.71875 28.09375 C 31.90625 27.746094 32.132812 27.613281 32.132812 27.851562 Z M 30.265625 28.746094 C 30.265625 28.933594 29.691406 29.308594 29.519531 29.238281 C 29.308594 29.160156 29.265625 28.800781 29.464844 28.800781 C 29.546875 28.800781 29.601562 28.90625 29.601562 29.027344 C 29.601562 29.214844 29.640625 29.199219 29.839844 28.960938 C 30.054688 28.679688 30.265625 28.574219 30.265625 28.746094 Z M 29.199219 29.414062 C 29.199219 29.667969 29.148438 29.746094 29 29.679688 C 28.867188 29.640625 28.800781 29.691406 28.800781 29.828125 C 28.800781 29.988281 28.761719 30.011719 28.652344 29.90625 C 28.558594 29.8125 28.613281 29.667969 28.828125 29.425781 C 29 29.226562 29.148438 29.066406 29.171875 29.066406 C 29.1875 29.066406 29.199219 29.226562 29.199219 29.414062 Z M 31.398438 29.601562 C 31.441406 29.667969 31.386719 29.734375 31.28125 29.734375 C 31.160156 29.734375 31.066406 29.828125 31.066406 29.933594 C 31.066406 30.039062 31.011719 30.132812 30.933594 30.132812 C 30.746094 30.132812 30.761719 29.894531 30.972656 29.667969 C 31.160156 29.441406 31.292969 29.425781 31.398438 29.601562 Z M 25.332031 32.507812 C 25.332031 32.652344 24.011719 33.121094 23.90625 33.011719 C 23.800781 32.90625 23.8125 32.90625 24.535156 32.640625 C 25.265625 32.386719 25.332031 32.375 25.332031 32.507812 Z M 15.320312 32.746094 C 15.347656 32.773438 15.347656 32.828125 15.308594 32.867188 C 15.199219 32.988281 14.535156 32.785156 14.535156 32.652344 C 14.535156 32.546875 15.171875 32.625 15.320312 32.746094 Z M 23.199219 33.199219 C 23.199219 33.265625 23.160156 33.332031 23.105469 33.332031 C 23.039062 33.332031 22.867188 33.375 22.707031 33.414062 C 22.535156 33.464844 22.398438 33.441406 22.398438 33.359375 C 22.398438 33.238281 22.519531 33.1875 23.105469 33.078125 C 23.160156 33.078125 23.199219 33.121094 23.199219 33.199219 Z M 17.988281 33.414062 C 18.121094 33.535156 17.90625 33.558594 17.507812 33.507812 C 17.265625 33.464844 17.066406 33.386719 17.066406 33.320312 C 17.066406 33.214844 17.851562 33.308594 17.988281 33.414062 Z M 17.988281 33.414062 "/>
<path style=" stroke:none;fill-rule:nonzero;fill:rgb(0%,0%,0%);fill-opacity:1;" d="M 13.933594 14.027344 C 13.71875 14.226562 13.171875 15.292969 12.464844 16.921875 C 11.851562 18.347656 11.28125 19.574219 11.199219 19.652344 C 11.011719 19.839844 11.027344 19.414062 11.265625 17.8125 C 11.546875 15.945312 11.535156 15.414062 11.171875 15.011719 C 10.519531 14.292969 9.625 14.558594 9.332031 15.574219 C 8.988281 16.828125 8.652344 19.945312 8.691406 21.535156 C 8.734375 23 8.761719 23.199219 9.066406 23.625 C 10 24.988281 11.027344 24.785156 12.148438 23.027344 L 12.640625 22.238281 L 12.785156 22.691406 C 13.121094 23.679688 14.027344 24.121094 14.988281 23.773438 C 15.546875 23.558594 15.574219 23.574219 15.972656 23.839844 C 16.492188 24.214844 17.171875 24.214844 17.734375 23.828125 C 18.773438 23.121094 19 22.332031 18.492188 21.09375 L 18.160156 20.265625 L 19.199219 20.265625 L 19.199219 21.625 C 19.199219 22.800781 19.253906 23.078125 19.507812 23.535156 C 19.679688 23.828125 20.027344 24.1875 20.292969 24.332031 C 20.785156 24.601562 20.800781 24.601562 21.265625 24.332031 C 21.585938 24.171875 21.988281 23.734375 22.398438 23.09375 L 23.054688 22.105469 L 23.238281 22.546875 C 23.8125 23.894531 25.226562 24.308594 26.425781 23.453125 C 26.867188 23.132812 27.09375 23.132812 27.398438 23.464844 C 27.519531 23.601562 27.839844 23.785156 28.09375 23.878906 C 28.828125 24.121094 29.613281 23.828125 30.558594 22.960938 C 31.558594 22.027344 31.828125 21.558594 31.585938 21.105469 C 31.308594 20.585938 30.867188 20.574219 30.226562 21.054688 C 29.546875 21.558594 29.09375 21.800781 28.988281 21.707031 C 28.878906 21.585938 29.453125 20.535156 29.667969 20.453125 C 29.761719 20.414062 29.972656 20.453125 30.132812 20.535156 C 30.375 20.652344 30.464844 20.640625 30.667969 20.464844 C 31.039062 20.132812 31.105469 19.652344 30.851562 19.121094 C 30.398438 18.160156 29.226562 18.011719 28.265625 18.785156 C 27.640625 19.292969 27.558594 19.292969 27.28125 18.867188 C 27.160156 18.679688 26.839844 18.425781 26.585938 18.308594 C 26.199219 18.121094 26.027344 18.105469 25.558594 18.226562 C 25.253906 18.308594 24.972656 18.359375 24.945312 18.332031 C 24.921875 18.308594 25.171875 17.652344 25.519531 16.894531 C 26.265625 15.214844 26.308594 14.707031 25.71875 14.214844 C 25.492188 14.027344 25.226562 13.867188 25.132812 13.867188 C 24.691406 13.867188 24.214844 14.625 23.078125 17.054688 C 22.414062 18.480469 21.800781 19.707031 21.71875 19.785156 C 21.546875 19.945312 21.640625 17.839844 21.867188 16.441406 C 22.011719 15.601562 21.960938 15.265625 21.613281 14.878906 C 21.121094 14.308594 20.359375 14.359375 19.945312 15 C 19.839844 15.171875 19.679688 15.839844 19.601562 16.480469 C 19.519531 17.132812 19.425781 17.8125 19.398438 18 C 19.375 18.1875 19.347656 18.375 19.347656 18.425781 C 19.332031 18.480469 19.09375 18.398438 18.800781 18.253906 C 18.160156 17.921875 17.359375 17.960938 16.8125 18.375 C 16.253906 18.785156 15.867188 19.453125 15.867188 20.011719 C 15.867188 20.375 15.761719 20.625 15.519531 20.894531 L 15.1875 21.265625 L 15.292969 20.867188 C 15.347656 20.640625 15.398438 20.132812 15.398438 19.71875 C 15.398438 19.1875 15.464844 18.878906 15.625 18.707031 C 15.761719 18.558594 15.90625 18.265625 15.945312 18.027344 C 16.011719 17.679688 15.960938 17.546875 15.652344 17.226562 C 15.441406 17.011719 15.1875 16.8125 15.09375 16.785156 C 14.972656 16.746094 15.011719 16.492188 15.265625 15.773438 C 15.625 14.707031 15.585938 14.320312 15.039062 13.945312 C 14.625 13.652344 14.347656 13.679688 13.933594 14.027344 Z M 15.039062 14.691406 C 15.078125 14.90625 12.640625 20.878906 11.933594 22.265625 C 10.90625 24.292969 10.121094 24.535156 9.320312 23.066406 C 9.054688 22.585938 9.121094 20.359375 9.464844 18 C 9.851562 15.359375 9.933594 15.066406 10.320312 15.066406 C 10.492188 15.066406 10.734375 15.1875 10.867188 15.320312 C 11.078125 15.574219 11.078125 15.667969 10.894531 16.828125 C 10.507812 19.148438 10.375 20.464844 10.425781 21.667969 L 10.464844 22.867188 L 11.308594 20.933594 C 11.773438 19.867188 12.585938 18.011719 13.09375 16.800781 C 14.1875 14.253906 14.320312 14.039062 14.71875 14.320312 C 14.878906 14.414062 15.011719 14.585938 15.039062 14.691406 Z M 25.519531 14.613281 C 25.800781 14.878906 25.785156 14.933594 25.414062 15.839844 C 23.945312 19.308594 21.90625 23.171875 21.226562 23.785156 C 20.839844 24.121094 20.332031 23.972656 19.988281 23.425781 C 19.734375 23.027344 19.71875 22.851562 19.785156 20.800781 C 19.851562 18.386719 20.199219 15.386719 20.425781 15.105469 C 20.625 14.851562 20.988281 14.894531 21.253906 15.1875 C 21.480469 15.425781 21.480469 15.535156 21.265625 17.09375 C 20.988281 19.238281 20.851562 23.011719 21.09375 22.535156 C 22.386719 19.839844 24.292969 15.761719 24.535156 15.160156 C 24.867188 14.359375 25.121094 14.214844 25.519531 14.613281 Z M 15.441406 17.773438 C 15.519531 18.492188 14.839844 18.785156 14.453125 18.199219 C 14.292969 17.960938 14.308594 17.878906 14.480469 17.613281 C 14.785156 17.171875 15.386719 17.265625 15.441406 17.773438 Z M 18.601562 18.691406 C 19.027344 18.878906 19.171875 19.414062 18.894531 19.707031 C 18.691406 19.894531 18.652344 19.894531 18.425781 19.691406 C 18.121094 19.414062 17.679688 19.398438 17.453125 19.679688 C 17.308594 19.867188 17.347656 20.027344 17.773438 20.800781 C 18.308594 21.785156 18.375 22.214844 18.066406 22.800781 C 17.691406 23.519531 16.90625 23.8125 16.265625 23.464844 C 15.878906 23.253906 15.679688 22.828125 15.867188 22.585938 C 16.011719 22.425781 16.078125 22.441406 16.398438 22.625 C 17.078125 23.027344 17.398438 22.441406 17.011719 21.535156 L 16.839844 21.132812 L 16.640625 21.535156 C 16.359375 22.054688 15.1875 23.160156 14.707031 23.347656 C 14.214844 23.535156 13.652344 23.28125 13.375 22.761719 C 13.09375 22.199219 13.214844 21.214844 13.691406 20.054688 C 14.011719 19.28125 14.121094 19.132812 14.386719 19.132812 C 14.867188 19.132812 15.011719 19.480469 14.839844 20.226562 C 14.761719 20.574219 14.613281 21.214844 14.519531 21.625 C 14.425781 22.054688 14.386719 22.425781 14.441406 22.480469 C 14.625 22.679688 15.214844 22.238281 15.828125 21.464844 C 16.359375 20.773438 16.453125 20.574219 16.414062 20.132812 C 16.332031 18.988281 17.519531 18.199219 18.601562 18.691406 Z M 26.734375 19 C 26.921875 19.171875 27.066406 19.414062 27.066406 19.546875 C 27.066406 20.292969 26.027344 21.375 25.121094 21.546875 C 24.800781 21.601562 24.667969 21.707031 24.667969 21.867188 C 24.667969 22.71875 25.265625 22.761719 26.359375 21.960938 C 26.988281 21.492188 27.226562 21.199219 27.585938 20.480469 C 28.09375 19.425781 28.839844 18.800781 29.558594 18.800781 C 30.105469 18.800781 30.535156 19.199219 30.535156 19.71875 C 30.535156 20.238281 30.292969 20.375 30.132812 19.945312 C 30.066406 19.761719 29.921875 19.601562 29.828125 19.601562 C 29.535156 19.601562 28.972656 20.28125 28.601562 21.09375 C 28.160156 22.066406 28.1875 22.453125 28.734375 22.507812 C 29.039062 22.535156 29.347656 22.375 30.121094 21.785156 C 30.785156 21.28125 31.132812 21.078125 31.226562 21.171875 C 31.535156 21.480469 29.933594 23.09375 29.078125 23.347656 C 28.386719 23.546875 27.679688 23.238281 27.386719 22.613281 L 27.160156 22.148438 L 26.558594 22.667969 C 25.347656 23.734375 24.148438 23.585938 23.734375 22.320312 C 23.535156 21.734375 23.8125 20.71875 24.414062 19.8125 C 25.160156 18.691406 26.105469 18.359375 26.734375 19 Z M 26.734375 19 "/>
<path style=" stroke:none;fill-rule:nonzero;fill:rgb(0%,0%,0%);fill-opacity:1;" d="M 25.972656 19.480469 C 25.746094 19.601562 24.933594 20.691406 24.933594 20.867188 C 24.933594 21.027344 25.761719 20.464844 26.078125 20.09375 C 26.558594 19.519531 26.507812 19.160156 25.972656 19.480469 Z M 25.972656 19.480469 "/>
</g>
</svg>
